<svg id="Layer_1" data-name="Layer 1" xmlns="http://www.w3.org/2000/svg" viewBox="0 0 306.45 306.5"><defs><style>.cls-1{fill:none;}.cls-2{stroke:#3f0;stroke-linecap:round;stroke-miterlimit:10;stroke-width:40px;}.cls-3{fill:#fff;}</style></defs><rect class="cls-1" x="9.98" y="10" width="286.5" height="286.5" rx="143.25"/><path class="cls-2" d="M588.94,295.59a133.25,133.25,0,1,1-41-99.85" transform="translate(-302.49 -138.69)"/><path class="cls-3" d="M403.62,309.1l5.69-6.11a9.36,9.36,0,0,0,6.08,2.64c4.3,0,7.46-3,7.46-12.11,0-9.47-3.1-11.39-5.57-11.39-2.27,0-4.3,1.26-4.3,5.28,0,3.65,2.15,4.55,4.43,4.55,1.9,0,3.86-1,5.31-3.59l.51,6.47a10.82,10.82,0,0,1-8,4.31c-6.83,0-12.14-3.59-12.14-11.74s6.32-13,13.91-13,15.69,5.28,15.69,19.06-8,20.38-16.58,20.38A17.89,17.89,0,0,1,403.62,309.1Z" transform="translate(-302.49 -138.69)"/><path class="cls-3" d="M437.39,294c0-13,6.08-19.54,14.93-19.54s14.93,6.59,14.93,19.54-6.08,19.9-14.93,19.9S437.39,307,437.39,294ZM457,294c0-10.07-2.15-11.63-4.68-11.63s-4.68,1.56-4.68,11.63,2.15,12,4.68,12S457,304.07,457,294Z" transform="translate(-302.49 -138.69)"/><path class="cls-3" d="M470.79,285.85c0-7.79,4.55-12.35,10.62-12.35S492,278.06,492,285.85s-4.56,12.47-10.63,12.47S470.79,293.64,470.79,285.85Zm13.78,0c0-5.28-1.51-6.71-3.16-6.71s-3.16,1.43-3.16,6.71,1.52,6.83,3.16,6.83S484.57,291.12,484.57,285.85Zm20.37-12.35H511l-22,40.4h-6.07Zm-3.16,27.93c0-7.79,4.55-12.35,10.62-12.35S523,293.64,523,301.43s-4.56,12.47-10.63,12.47S501.78,309.22,501.78,301.43Zm13.79,0c0-5.27-1.52-6.71-3.17-6.71s-3.16,1.44-3.16,6.71,1.52,6.83,3.16,6.83S515.57,306.71,515.57,301.43Z" transform="translate(-302.49 -138.69)"/></svg>